<?xml version="1.0" encoding="UTF-8" standalone="no"?>
<svg
   xmlns:osb="http://www.openswatchbook.org/uri/2009/osb"
   xmlns:dc="http://purl.org/dc/elements/1.1/"
   xmlns:cc="http://creativecommons.org/ns#"
   xmlns:rdf="http://www.w3.org/1999/02/22-rdf-syntax-ns#"
   xmlns:svg="http://www.w3.org/2000/svg"
   xmlns="http://www.w3.org/2000/svg"
   xmlns:xlink="http://www.w3.org/1999/xlink"
   xmlns:sodipodi="http://sodipodi.sourceforge.net/DTD/sodipodi-0.dtd"
   xmlns:inkscape="http://www.inkscape.org/namespaces/inkscape"
   width="3000"
   height="3000"
   viewBox="0 0 774 774.15082"
   version="1.1"
   id="svg4"
   sodipodi:docname="V11.svg"
   inkscape:version="0.92.3 (2405546, 2018-03-11)"
   inkscape:export-filename="D:\Users\Cosmin\Desktop\vectorial\vectorial\png\pequeño_w_final.png"
   inkscape:export-xdpi="50.0256"
   inkscape:export-ydpi="50.0256">
  <metadata
     id="metadata10">
    <rdf:RDF>
      <cc:Work
         rdf:about="">
        <dc:format>image/svg+xml</dc:format>
        <dc:type
           rdf:resource="http://purl.org/dc/dcmitype/StillImage" />
        <dc:title />
      </cc:Work>
    </rdf:RDF>
  </metadata>
  <defs
     id="defs8">
    <inkscape:path-effect
       effect="powerstroke"
       id="path-effect10802"
       is_visible="true"
       offset_points="0,1.7586882"
       sort_points="true"
       interpolator_type="CubicBezierJohan"
       interpolator_beta="0.2"
       start_linecap_type="zerowidth"
       linejoin_type="extrp_arc"
       miter_limit="4"
       end_linecap_type="zerowidth" />
    <inkscape:path-effect
       effect="spiro"
       id="path-effect10800"
       is_visible="true" />
    <inkscape:path-effect
       effect="powerstroke"
       id="path-effect10796"
       is_visible="true"
       offset_points="1,0.12902513"
       sort_points="true"
       interpolator_type="CubicBezierJohan"
       interpolator_beta="0.2"
       start_linecap_type="zerowidth"
       linejoin_type="extrp_arc"
       miter_limit="4"
       end_linecap_type="zerowidth" />
    <inkscape:path-effect
       effect="spiro"
       id="path-effect10794"
       is_visible="true" />
    <inkscape:path-effect
       effect="powerstroke"
       id="path-effect10784"
       is_visible="true"
       offset_points="0.049367903,1.722974"
       sort_points="true"
       interpolator_type="CubicBezierJohan"
       interpolator_beta="0.2"
       start_linecap_type="zerowidth"
       linejoin_type="extrp_arc"
       miter_limit="4"
       end_linecap_type="zerowidth" />
    <inkscape:path-effect
       effect="spiro"
       id="path-effect10782"
       is_visible="true" />
    <inkscape:path-effect
       effect="powerstroke"
       id="path-effect10778"
       is_visible="true"
       offset_points="0.054422277,1.762404"
       sort_points="true"
       interpolator_type="CubicBezierJohan"
       interpolator_beta="0.2"
       start_linecap_type="zerowidth"
       linejoin_type="extrp_arc"
       miter_limit="4"
       end_linecap_type="zerowidth" />
    <inkscape:path-effect
       effect="spiro"
       id="path-effect10776"
       is_visible="true" />
    <inkscape:path-effect
       effect="spiro"
       id="path-effect9393"
       is_visible="true" />
    <inkscape:path-effect
       effect="powerstroke"
       id="path-effect9389"
       is_visible="true"
       offset_points="0,1.8202956"
       sort_points="true"
       interpolator_type="CubicBezierJohan"
       interpolator_beta="0.2"
       start_linecap_type="zerowidth"
       linejoin_type="extrp_arc"
       miter_limit="4"
       end_linecap_type="zerowidth" />
    <inkscape:path-effect
       effect="spiro"
       id="path-effect9387"
       is_visible="true" />
    <inkscape:path-effect
       effect="spiro"
       id="path-effect8607"
       is_visible="true" />
    <inkscape:path-effect
       fuse_tolerance="0"
       vertical_pattern="false"
       prop_units="false"
       tang_offset="0"
       normal_offset="0"
       spacing="0"
       scale_y_rel="false"
       prop_scale="0.34193256"
       copytype="single_stretched"
       pattern="m 87.481467,362.85103 c 0,-2.76 2.24,-5 5,-5 2.76,0 5,2.24 5,5 0,2.76001 -2.24,5.00001 -5,5.00001 -2.76,0 -5,-2.24 -5,-5.00001 z"
       is_visible="true"
       id="path-effect8597"
       effect="skeletal" />
    <inkscape:path-effect
       is_visible="true"
       id="path-effect8595"
       effect="spiro" />
    <inkscape:path-effect
       effect="powerstroke"
       id="path-effect8514"
       is_visible="true"
       offset_points="2,1.6059764"
       sort_points="true"
       interpolator_type="CubicBezierJohan"
       interpolator_beta="0.2"
       start_linecap_type="zerowidth"
       linejoin_type="extrp_arc"
       miter_limit="4"
       end_linecap_type="zerowidth" />
    <inkscape:path-effect
       effect="spiro"
       id="path-effect8512"
       is_visible="true" />
    <inkscape:path-effect
       effect="powerstroke"
       id="path-effect8508"
       is_visible="true"
       offset_points="1,0.12902513"
       sort_points="true"
       interpolator_type="CubicBezierJohan"
       interpolator_beta="0.2"
       start_linecap_type="zerowidth"
       linejoin_type="extrp_arc"
       miter_limit="4"
       end_linecap_type="zerowidth" />
    <inkscape:path-effect
       effect="spiro"
       id="path-effect8506"
       is_visible="true" />
    <inkscape:path-effect
       effect="skeletal"
       id="path-effect8475"
       is_visible="true"
       pattern="m 150.49952,-257.10407 c 0,-2.76 2.24,-5 5,-5 2.76,0 5,2.24 5,5 0,2.76 -2.24,5.00001 -5,5.00001 -2.76,0 -5,-2.24001 -5,-5.00001 z"
       copytype="single_stretched"
       prop_scale="0.35484998"
       scale_y_rel="false"
       spacing="0"
       normal_offset="0"
       tang_offset="0"
       prop_units="false"
       vertical_pattern="false"
       fuse_tolerance="0" />
    <inkscape:path-effect
       effect="spiro"
       id="path-effect8473"
       is_visible="true" />
    <inkscape:path-effect
       effect="skeletal"
       id="path-effect8469"
       is_visible="true"
       pattern="m 150.49952,-257.10407 c 0,-2.76 2.24,-5 5,-5 2.76,0 5,2.24 5,5 0,2.76 -2.24,5.00001 -5,5.00001 -2.76,0 -5,-2.24001 -5,-5.00001 z"
       copytype="single_stretched"
       prop_scale="0.46556042"
       scale_y_rel="false"
       spacing="0"
       normal_offset="0"
       tang_offset="0"
       prop_units="false"
       vertical_pattern="false"
       fuse_tolerance="0" />
    <inkscape:path-effect
       effect="spiro"
       id="path-effect8467"
       is_visible="true" />
    <inkscape:path-effect
       effect="skeletal"
       id="path-effect8459"
       is_visible="true"
       pattern="M 0,5 C 0,2.24 2.24,0 5,0 7.76,0 10,2.24 10,5 10,7.76 7.76,10 5,10 2.24,10 0,7.76 0,5 Z"
       copytype="single_stretched"
       prop_scale="0.258"
       scale_y_rel="false"
       spacing="0"
       normal_offset="0"
       tang_offset="0"
       prop_units="false"
       vertical_pattern="false"
       fuse_tolerance="0" />
    <linearGradient
       inkscape:collect="always"
       id="linearGradient6927">
      <stop
         style="stop-color:#000000;stop-opacity:1;"
         offset="0"
         id="stop6923" />
      <stop
         style="stop-color:#000000;stop-opacity:0;"
         offset="1"
         id="stop6925" />
    </linearGradient>
    <linearGradient
       id="linearGradient6498"
       osb:paint="solid">
      <stop
         style="stop-color:#00f89a;stop-opacity:1;"
         offset="0"
         id="stop6496" />
    </linearGradient>
    <linearGradient
       id="linearGradient6206"
       osb:paint="solid">
      <stop
         style="stop-color:#ff0000;stop-opacity:1;"
         offset="0"
         id="stop6204" />
    </linearGradient>
    <linearGradient
       id="linearGradient6098"
       osb:paint="solid">
      <stop
         style="stop-color:#e72a4e;stop-opacity:1;"
         offset="0"
         id="stop6096" />
    </linearGradient>
    <linearGradient
       id="linearGradient6080"
       osb:paint="solid">
      <stop
         style="stop-color:#000000;stop-opacity:1;"
         offset="0"
         id="stop6078" />
    </linearGradient>
    <linearGradient
       inkscape:collect="always"
       xlink:href="#linearGradient6927"
       id="linearGradient6929"
       x1="447.73174"
       y1="427.8712"
       x2="701.10528"
       y2="427.8712"
       gradientUnits="userSpaceOnUse" />
    <inkscape:path-effect
       effect="spiro"
       id="path-effect8473-4"
       is_visible="true" />
    <inkscape:path-effect
       effect="skeletal"
       id="path-effect8475-3"
       is_visible="true"
       pattern="m -54.176558,-84.032381 c 0,-2.760003 2.24,-5.000005 5,-5.000005 2.76,0 5,2.240002 5,5.000005 0,2.760002 -2.24,5.000004 -5,5.000004 -2.76,0 -5,-2.240002 -5,-5.000004 z"
       copytype="single_stretched"
       prop_scale="1.0692205"
       scale_y_rel="false"
       spacing="0"
       normal_offset="0"
       tang_offset="0"
       prop_units="false"
       vertical_pattern="false"
       fuse_tolerance="0" />
  </defs>
  <sodipodi:namedview
     pagecolor="#ffffff"
     bordercolor="#666666"
     borderopacity="1"
     objecttolerance="10"
     gridtolerance="10"
     guidetolerance="10"
     inkscape:pageopacity="0"
     inkscape:pageshadow="2"
     inkscape:window-width="1920"
     inkscape:window-height="1001"
     id="namedview6"
     showgrid="false"
     inkscape:zoom="0.24248849"
     inkscape:cx="715.13315"
     inkscape:cy="1614.1917"
     inkscape:window-x="-9"
     inkscape:window-y="-9"
     inkscape:window-maximized="1"
     inkscape:current-layer="svg4"
     inkscape:measure-start="1736.27,223.338"
     inkscape:measure-end="0,0"
     showguides="false" />
  <path
     style="fill:#a6a6a6;fill-opacity:1;stroke:none;stroke-width:0.25805026px;stroke-linecap:butt;stroke-linejoin:miter;stroke-opacity:1"
     d="m 374.72973,315.67277 c -0.20727,0.1186 -1.87667,-2.88192 -6.132,-7.38733 -4.08138,-4.32125 -11.49195,-10.65774 -22.28776,-13.75117 -10.33466,-2.97571 -24.14963,-2.81554 -37.42049,3.95516 -7.42976,3.80111 -14.6193,9.67729 -19.67152,17.54646 0,0 -1e-5,1e-5 -1e-5,1e-5 -6.83162,10.54382 -9.41938,24.33885 -7.80645,38.64685 1.70071,14.57422 7.89817,29.83986 19.40352,40.76671 5.77887,5.5546 12.71412,9.81881 20.1432,14.10644 3.54485,2.04587 7.0388,4.00676 10.54235,6.11224 13.66085,8.17161 25.90676,17.39191 38.90789,23.56073 7.39695,3.52778 15.72614,6.4141 23.15034,9.29974 5.85532,2.26593 11.11564,4.48763 16.68535,5.78505 5.80604,1.3322 11.58279,1.62709 16.70743,0.0121 6.99436,-2.0752 12.64324,-7.67888 17.06942,-13.05291 5.0584,-6.22681 9.23211,-12.82665 14.25181,-18.08511 8.57313,-8.92077 19.31803,-14.24733 26.68899,-17.36931 13.30408,-5.65027 21.36003,-6.72267 21.39567,-6.59183 0.0967,0.35487 -7.75111,2.35671 -20.55382,8.46128 -7.09245,3.39054 -17.45165,8.95332 -25.29669,17.58905 -4.64413,5.07592 -8.57075,11.63253 -13.7167,18.20393 -4.45425,5.76388 -10.54001,11.86676 -18.66136,14.56964 -6.00038,1.90138 -12.50817,1.72941 -18.80687,0.28889 -6.01783,-1.35685 -11.51014,-3.58785 -17.3053,-5.78813 -7.3572,-2.78081 -15.78303,-5.63784 -23.52632,-9.262 -13.55824,-6.37739 -26.00717,-15.6459 -39.37494,-23.63105 -3.41035,-2.0275 -6.94424,-4.00221 -10.49508,-6.05587 -7.50208,-4.3389 -14.73125,-8.84432 -21.00147,-14.81005 -12.3868,-11.91685 -18.92276,-28.14994 -20.57068,-43.62325 -1.67257,-15.17256 1.34681,-29.89739 8.84947,-41.30157 0,0 0,-10e-6 10e-6,-10e-6 5.61938,-8.47067 13.41025,-14.64069 21.41306,-18.54133 14.28485,-6.98145 28.93298,-6.73173 39.75193,-3.26241 11.30281,3.63961 18.68667,10.59353 22.56509,15.31506 4.07411,4.95976 5.18833,8.24458 5.10193,8.29402 z"
     id="path8465"
     inkscape:connector-curvature="0"
     inkscape:path-effect="#path-effect8467;#path-effect8469"
     inkscape:original-d="m 374.72973,315.67277 c -9.44007,-7.4582 -18.69533,-14.91611 -28.04339,-22.37379 -9.34805,-7.45768 -25.72388,2.4056 -38.58621,3.60878 -12.86233,1.20319 -13.69461,12.02902 -20.5423,18.04391 -6.84769,6.0149 -5.55171,26.64921 -8.32796,39.97421 -2.77624,13.32499 13.325,28.12972 19.9871,42.19498 6.66211,14.06527 20.72763,13.6946 31.09105,20.5423 10.36343,6.8477 20.45003,13.1394 39.14141,23.59589 11.65068,6.04677 17.00493,6.36138 23.33834,9.28087 4.48349,2.1299 30.72181,4.24232 34.75247,5.64818 0.0724,0.0253 44.16167,-39.92931 31.84965,-31.95579 -0.33187,0.21493 25.74493,-17.58391 25.99283,-17.47918 6.77838,2.86371 14.61608,-12.08111 20.97474,-7.52656"
     sodipodi:nodetypes="cssssssccsssc" />
  <path
     style="fill:#e72a4e;fill-opacity:1;stroke:none;stroke-width:0.25805026px;stroke-linecap:butt;stroke-linejoin:miter;stroke-opacity:1"
     d="m 321.47882,386.01477 c 0.37795,0.0978 -2.98138,9.25417 1.21205,23.26616 0,0 0,10e-6 0,10e-6 2.10382,7.04532 6.44209,15.02479 13.9181,21.81899 5.95113,5.40986 13.70766,9.84155 22.79088,12.34675 0,0 0,0 0,0 13.61717,3.77746 29.24756,2.77522 44.66213,-2.95413 2.21661,-0.82387 4.38344,-1.72982 6.49134,-2.7066 5.40818,-2.5162 10.46489,-5.48045 15.11496,-8.78686 7.59161,-5.38851 14.67587,-12.17733 20.89429,-17.99832 7.65439,-7.18038 14.11135,-12.99543 21.54153,-17.9075 0,0 10e-6,0 10e-6,0 23.55115,-15.54425 41.35733,-12.86825 41.28352,-13.59624 0.0544,0.53706 -18.23375,0.84466 -39.77016,15.83001 0,10e-6 -1e-5,10e-6 -1e-5,10e-6 -7.12521,4.94958 -13.26891,10.72066 -20.84301,18.00279 -6.13322,5.90929 -13.2337,12.83664 -21.08319,18.49657 -4.80259,3.45711 -10.03507,6.55125 -15.64088,9.17038 -2.18732,1.02589 -4.43868,1.97475 -6.74503,2.83501 -16.03941,5.9826 -32.44805,6.88223 -46.79754,2.78156 0,0 0,-10e-6 0,-10e-6 -9.56102,-2.7468 -17.66915,-7.57454 -23.84433,-13.41677 -7.75754,-7.34105 -12.06491,-15.89816 -13.98571,-23.35706 0,0 0,0 0,-10e-6 -4.00542,-15.5913 1.34088,-23.68505 0.80105,-23.82474 z m 153.37521,-31.62469 c -0.33644,-0.12878 1.92205,-5.77243 3.1597,-15.865 1.22376,-9.97932 1.14807,-24.91415 -5.53871,-40.50564 -2.35484,-5.4735 -5.51948,-11.08536 -9.91153,-15.75463 -4.47886,-4.79191 -10.28211,-8.60782 -16.88897,-11.06444 -2.70471,-1.00568 -5.47264,-1.75614 -8.24485,-2.25569 -9.82041,-1.76951 -19.62625,-0.43131 -27.99569,2.57197 -10.07312,3.62967 -17.85729,9.5209 -23.14779,15.92928 0,0 0,0 0,0 -11.98711,14.48867 -11.04481,28.23852 -11.55646,28.22685 1.04864,0.0239 -3.58226,-12.85706 9.52918,-29.84546 0,0 0,-10e-6 0,-10e-6 5.36839,-6.94158 13.44872,-13.40203 24.04395,-17.3826 8.80315,-3.31988 19.19309,-4.82872 29.74487,-2.97997 2.98198,0.52245 5.95749,1.32194 8.86602,2.40442 7.10554,2.64448 13.34534,6.79942 18.18872,12.03531 4.71262,5.12454 8.00708,11.10033 10.35895,16.86411 6.72207,16.42219 6.29218,31.89626 4.48141,42.0473 -1.8461,10.34907 -4.94221,15.63031 -5.0888,15.5742 z"
     id="path8471"
     inkscape:connector-curvature="0"
     inkscape:path-effect="#path-effect8473;#path-effect8475"
     inkscape:original-d="m 321.47882,386.01477 c 2.32465,-1.67057 -4.41282,17.19924 0.2055,23.54546 18.52561,25.45675 88.47949,32.09781 89.61753,29.83114 1.03848,-2.06836 11.82824,-5.13432 15.37792,-8.97862 13.18739,-15.55825 28.1026,-25.76082 42.18101,-36.20259 20.07937,-16.65565 30.53355,4.53345 40.52685,-14.71313 m -34.5336,-25.10695 c 5.55172,-12.58421 -14.20189,-42.19106 -0.88581,-56.99607 10.02072,-11.14117 -6.24862,-10.10992 -10.13524,-16.30937 -3.88665,-6.19945 -17.39595,-9.25356 -26.09428,-13.87993 -8.69836,-4.62638 -19.24658,1.8504 -28.87028,2.77597 -9.62366,0.9256 -15.73032,11.1037 -23.59587,16.65594 -7.86555,5.55223 -7.02829,19.35717 -10.54282,29.03615"
     sodipodi:nodetypes="casccccscscsc" />
  <path
     style="fill:none;stroke:#000000;stroke-width:3.23620892;stroke-linecap:round;stroke-linejoin:round;stroke-miterlimit:4;stroke-dasharray:none;stroke-opacity:1"
     d="m 336.41732,378.06765 h 7.51913 c 5.59763,-5.16031 4.51856,-9.61404 6.77728,-14.41663 l 3.33461,10.28062 c 1.37213,6.58388 7.30793,2.61606 9.51769,9.62074 l 7.83053,29.59328 13.31443,-119.06165 7.3341,144.87961 7.84659,-52.49217 c 0.54169,-1.88995 2.16987,-6.41819 5.41397,-7.65935 4.93354,-1.14731 7.77035,0.0784 12.81018,0.0893 6.9813,-1.21543 9.92732,-15.35074 11.30117,-17.73753"
     id="path4601-7"
     inkscape:connector-curvature="0"
     sodipodi:nodetypes="cccccccccccc" />
  <path
     style="fill:#000000;fill-rule:nonzero;stroke:none;stroke-width:0.25805026px;stroke-linecap:butt;stroke-linejoin:miter;stroke-opacity:1"
     d="m 321.47882,386.01477 c 0.50993,-1.14557 1.50285,-2.6706 3.15321,-4.05805 1.65523,-1.39155 3.75885,-2.45758 6.08915,-2.86244 2.48505,-0.20333 4.22046,0.34438 5.41783,0.55507 0,0 0.27831,-1.58168 0.27831,-1.58168 0,0 0.27831,-1.58168 0.27831,-1.58168 -1.45629,-0.25625 -3.90899,-0.0407 -6.38573,1.05587 -5.34431,1.86546 -7.78494,6.12274 -8.83108,8.47291 z"
     id="path8510"
     inkscape:connector-curvature="0"
     inkscape:path-effect="#path-effect8512;#path-effect8514"
     inkscape:original-d="m 321.47882,386.01477 c -0.32847,-0.60648 7.9083,-7.10809 9.03672,-7.6967 1.12842,-0.58864 3.98819,-0.2016 5.90178,-0.2504"
     sodipodi:nodetypes="ccc" />
  <text
     xml:space="preserve"
     style="font-style:normal;font-variant:normal;font-weight:normal;font-stretch:normal;font-size:46.55226898px;line-height:1.25;font-family:'Segoe Script';-inkscape-font-specification:'Segoe Script, Normal';font-variant-ligatures:normal;font-variant-caps:normal;font-variant-numeric:normal;font-feature-settings:normal;text-align:start;letter-spacing:0px;word-spacing:0px;writing-mode:lr-tb;text-anchor:start;fill:#000000;fill-opacity:1;stroke:none;stroke-width:0.25805026;stroke-linecap:butt;stroke-miterlimit:4;stroke-dasharray:none;stroke-opacity:1;paint-order:normal"
     x="460.56714"
     y="345.93268"
     id="text871-7-5"
     transform="rotate(5.880568)"><tspan
       sodipodi:role="line"
       id="tspan9395"
       x="460.56714"
       y="345.93268">W</tspan></text>
  <g
     inkscape:groupmode="layer"
     id="layer1"
     inkscape:label="Layer 1" />
  <g
     inkscape:groupmode="layer"
     id="layer2"
     inkscape:label="Layer 2"
     style="display:none">
    <path
       style="fill:none;stroke:#000000;stroke-width:0.25805026px;stroke-linecap:butt;stroke-linejoin:miter;stroke-opacity:1"
       d="m 225.40051,621.64393 c 5.99603,-5.05749 11.63056,-10.54348 16.8464,-16.40229 6.19739,-6.96135 11.88243,-14.5225 19.33476,-20.1199 6.7897,-5.0997 14.82084,-8.37154 23.06917,-10.38948 8.24833,-2.01795 16.74334,-2.82472 25.21861,-3.35095 32.20568,-1.99967 64.65666,-0.0169 96.37932,5.88875"
       id="path8605"
       inkscape:connector-curvature="0"
       inkscape:path-effect="#path-effect8607"
       inkscape:original-d="m 225.40051,621.64393 c 6.64146,-9.7167 26.04258,-9.17481 16.8464,-16.40229 -21.09039,-16.57539 3.59896,-12.30118 19.33476,-20.1199 15.7358,-7.81869 34.41675,-11.58148 48.28778,-13.74043 13.87105,-2.15895 88.52791,5.88849 96.37932,5.88875"
       sodipodi:nodetypes="cscsc" />
  </g>
  <g
     inkscape:groupmode="layer"
     id="layer3"
     inkscape:label="Layer 3"
     style="display:inline" />
</svg>
