<?xml version="1.0" encoding="UTF-8" standalone="no"?>
<svg
   xmlns:osb="http://www.openswatchbook.org/uri/2009/osb"
   xmlns:dc="http://purl.org/dc/elements/1.1/"
   xmlns:cc="http://creativecommons.org/ns#"
   xmlns:rdf="http://www.w3.org/1999/02/22-rdf-syntax-ns#"
   xmlns:svg="http://www.w3.org/2000/svg"
   xmlns="http://www.w3.org/2000/svg"
   xmlns:xlink="http://www.w3.org/1999/xlink"
   xmlns:sodipodi="http://sodipodi.sourceforge.net/DTD/sodipodi-0.dtd"
   xmlns:inkscape="http://www.inkscape.org/namespaces/inkscape"
   width="2405.2056"
   height="1156.3002"
   viewBox="0 0 620.54304 298.38359"
   version="1.1"
   id="svg4"
   sodipodi:docname="largo_V9_sin_fondo.svg"
   inkscape:version="0.92.3 (2405546, 2018-03-11)"
   inkscape:export-filename="D:\Users\Cosmin\Documents\GitHub\corporate_resources\Logos\largo_V9_sin_fondo.png"
   inkscape:export-xdpi="134.45613"
   inkscape:export-ydpi="134.45613">
  <metadata
     id="metadata10">
    <rdf:RDF>
      <cc:Work
         rdf:about="">
        <dc:format>image/svg+xml</dc:format>
        <dc:type
           rdf:resource="http://purl.org/dc/dcmitype/StillImage" />
        <dc:title></dc:title>
      </cc:Work>
    </rdf:RDF>
  </metadata>
  <defs
     id="defs8">
    <inkscape:path-effect
       effect="spiro"
       id="path-effect8607"
       is_visible="true" />
    <inkscape:path-effect
       fuse_tolerance="0"
       vertical_pattern="false"
       prop_units="false"
       tang_offset="0"
       normal_offset="0"
       spacing="0"
       scale_y_rel="false"
       prop_scale="0.34193256"
       copytype="single_stretched"
       pattern="m 87.481467,362.85103 c 0,-2.76 2.24,-5 5,-5 2.76,0 5,2.24 5,5 0,2.76001 -2.24,5.00001 -5,5.00001 -2.76,0 -5,-2.24 -5,-5.00001 z"
       is_visible="true"
       id="path-effect8597"
       effect="skeletal" />
    <inkscape:path-effect
       is_visible="true"
       id="path-effect8595"
       effect="spiro" />
    <inkscape:path-effect
       effect="powerstroke"
       id="path-effect8514"
       is_visible="true"
       offset_points="2,1.6059764"
       sort_points="true"
       interpolator_type="CubicBezierJohan"
       interpolator_beta="0.2"
       start_linecap_type="zerowidth"
       linejoin_type="extrp_arc"
       miter_limit="4"
       end_linecap_type="zerowidth" />
    <inkscape:path-effect
       effect="spiro"
       id="path-effect8512"
       is_visible="true" />
    <inkscape:path-effect
       effect="powerstroke"
       id="path-effect8508"
       is_visible="true"
       offset_points="1,0.12902513"
       sort_points="true"
       interpolator_type="CubicBezierJohan"
       interpolator_beta="0.2"
       start_linecap_type="zerowidth"
       linejoin_type="extrp_arc"
       miter_limit="4"
       end_linecap_type="zerowidth" />
    <inkscape:path-effect
       effect="spiro"
       id="path-effect8506"
       is_visible="true" />
    <inkscape:path-effect
       effect="skeletal"
       id="path-effect8475"
       is_visible="true"
       pattern="m -14.10018,-473.79975 c 0,-2.76 2.24,-5.00001 5.0000004,-5.00001 2.76,0 5,2.24001 5,5.00001 0,2.76 -2.24,5 -5,5 -2.7600004,0 -5.0000004,-2.24 -5.0000004,-5 z"
       copytype="single_stretched"
       prop_scale="0.58841213"
       scale_y_rel="false"
       spacing="0"
       normal_offset="0"
       tang_offset="0"
       prop_units="false"
       vertical_pattern="false"
       fuse_tolerance="0" />
    <inkscape:path-effect
       effect="spiro"
       id="path-effect8473"
       is_visible="true" />
    <inkscape:path-effect
       effect="skeletal"
       id="path-effect8469"
       is_visible="true"
       pattern="m -14.10018,-473.79975 c 0,-2.76 2.24,-5.00001 5.0000004,-5.00001 2.76,0 5,2.24001 5,5.00001 0,2.76 -2.24,5 -5,5 -2.7600004,0 -5.0000004,-2.24 -5.0000004,-5 z"
       copytype="single_stretched"
       prop_scale="0.46556042"
       scale_y_rel="false"
       spacing="0"
       normal_offset="0"
       tang_offset="0"
       prop_units="false"
       vertical_pattern="false"
       fuse_tolerance="0" />
    <inkscape:path-effect
       effect="spiro"
       id="path-effect8467"
       is_visible="true" />
    <inkscape:path-effect
       effect="skeletal"
       id="path-effect8459"
       is_visible="true"
       pattern="M 0,5 C 0,2.24 2.24,0 5,0 7.76,0 10,2.24 10,5 10,7.76 7.76,10 5,10 2.24,10 0,7.76 0,5 Z"
       copytype="single_stretched"
       prop_scale="0.258"
       scale_y_rel="false"
       spacing="0"
       normal_offset="0"
       tang_offset="0"
       prop_units="false"
       vertical_pattern="false"
       fuse_tolerance="0" />
    <linearGradient
       inkscape:collect="always"
       id="linearGradient6927">
      <stop
         style="stop-color:#000000;stop-opacity:1;"
         offset="0"
         id="stop6923" />
      <stop
         style="stop-color:#000000;stop-opacity:0;"
         offset="1"
         id="stop6925" />
    </linearGradient>
    <linearGradient
       id="linearGradient6498"
       osb:paint="solid">
      <stop
         style="stop-color:#00f89a;stop-opacity:1;"
         offset="0"
         id="stop6496" />
    </linearGradient>
    <linearGradient
       id="linearGradient6206"
       osb:paint="solid">
      <stop
         style="stop-color:#ff0000;stop-opacity:1;"
         offset="0"
         id="stop6204" />
    </linearGradient>
    <linearGradient
       id="linearGradient6098"
       osb:paint="solid">
      <stop
         style="stop-color:#e72a4e;stop-opacity:1;"
         offset="0"
         id="stop6096" />
    </linearGradient>
    <linearGradient
       id="linearGradient6080"
       osb:paint="solid">
      <stop
         style="stop-color:#000000;stop-opacity:1;"
         offset="0"
         id="stop6078" />
    </linearGradient>
    <linearGradient
       inkscape:collect="always"
       xlink:href="#linearGradient6927"
       id="linearGradient6929"
       x1="447.73175"
       y1="427.87119"
       x2="701.10529"
       y2="427.87119"
       gradientUnits="userSpaceOnUse" />
    <inkscape:path-effect
       effect="spiro"
       id="path-effect8473-4"
       is_visible="true" />
    <inkscape:path-effect
       effect="skeletal"
       id="path-effect8475-3"
       is_visible="true"
       pattern="m -54.176558,-84.032381 c 0,-2.760003 2.24,-5.000005 5,-5.000005 2.76,0 5,2.240002 5,5.000005 0,2.760002 -2.24,5.000004 -5,5.000004 -2.76,0 -5,-2.240002 -5,-5.000004 z"
       copytype="single_stretched"
       prop_scale="1.0692205"
       scale_y_rel="false"
       spacing="0"
       normal_offset="0"
       tang_offset="0"
       prop_units="false"
       vertical_pattern="false"
       fuse_tolerance="0" />
  </defs>
  <sodipodi:namedview
     pagecolor="#ffffff"
     bordercolor="#666666"
     borderopacity="1"
     objecttolerance="10"
     gridtolerance="10"
     guidetolerance="10"
     inkscape:pageopacity="0"
     inkscape:pageshadow="2"
     inkscape:window-width="1920"
     inkscape:window-height="1001"
     id="namedview6"
     showgrid="false"
     inkscape:zoom="0.9295805"
     inkscape:cx="1219.6447"
     inkscape:cy="414.79099"
     inkscape:window-x="-9"
     inkscape:window-y="877"
     inkscape:window-maximized="1"
     inkscape:current-layer="svg4"
     inkscape:measure-start="1736.27,223.338"
     inkscape:measure-end="0,0"
     showguides="false"
     fit-margin-left="200"
     fit-margin-bottom="150"
     fit-margin-top="150"
     fit-margin-right="200" />
  <path
     style="fill:#a6a6a6;fill-opacity:1;stroke:none;stroke-width:0.25805026px;stroke-linecap:butt;stroke-linejoin:miter;stroke-opacity:1"
     d="m 210.13003,98.977093 c -0.19091,0.109277 -1.83127,-2.876338 -6.06689,-7.38966 -4.0528,-4.318509 -11.47148,-10.710185 -22.32718,-13.833826 -10.30964,-2.979781 -24.16297,-2.863579 -37.49366,3.943236 -7.42668,3.801415 -14.62859,9.687981 -19.71608,17.586607 -6.8333,10.52455 -9.53392,24.35477 -7.80814,38.7002 0,0 0,2e-5 0,2e-5 1.7845,14.50406 8.18215,29.52897 19.5014,40.85014 8.35527,8.41674 19.00032,14.4337 30.5032,20.05051 7.29975,3.54795 14.77184,6.84635 22.46583,10.10398 6.94315,2.93972 14.15399,5.88133 20.98841,8.71299 3.14211,1.30118 6.26078,2.60286 9.36169,4.01106 3.7074,1.68436 7.32324,3.49322 10.84511,5.39385 5.47083,2.94448 10.42515,5.94495 15.76923,8.01877 5.44293,2.08398 11.12315,3.22237 16.37666,2.19709 3.7104,-0.67236 7.23314,-2.40583 10.35433,-4.6114 3.20095,-2.26778 6.02043,-5.12416 8.61281,-8.11542 5.42396,-6.28804 10.03825,-13.37623 16.08085,-19.06809 8.46772,-7.89531 18.96199,-12.47898 28.74213,-15.0393 11.03857,-2.89921 22.45856,-3.70555 31.84844,-4.16329 38.51931,-1.90083 61.60634,1.28525 61.59482,1.4807 -0.034,0.57731 -23.26253,-1.15219 -61.41348,1.5435 -9.31114,0.66356 -20.54352,1.65054 -31.08711,4.61098 -9.33409,2.62941 -19.24065,7.07611 -26.93166,14.47598 -5.55208,5.28322 -9.96597,12.27252 -15.6124,18.91719 -2.68677,3.176 -5.73088,6.28451 -9.306,8.88037 -3.49124,2.5406 -7.57519,4.55004 -12.06087,5.42951 -6.37253,1.17594 -12.88994,0.004 -18.83131,-2.32972 -5.81492,-2.25601 -10.96032,-5.31858 -16.30696,-8.18915 -3.44453,-1.84424 -6.97201,-3.59693 -10.57951,-5.22539 -3.01733,-1.36267 -6.09044,-2.63739 -9.22799,-3.93144 -6.84406,-2.8213 -14.03097,-5.7459 -21.03276,-8.71143 -7.7365,-3.27672 -15.28203,-6.61664 -22.67898,-10.22502 -11.68522,-5.67427 -22.74277,-12.04155 -31.67892,-21.03409 -12.05631,-12.21375 -18.72839,-28.15668 -20.47278,-43.53982 0,0 1e-5,-2e-5 1e-5,-2e-5 -1.76432,-15.21267 1.36938,-29.93042 8.84777,-41.248173 5.62909,-8.456849 13.40202,-14.611288 21.3685,-18.501214 14.29123,-6.994941 28.92276,-6.716522 39.67878,-3.274324 11.32759,3.63913 18.71589,10.607941 22.57913,15.296614 4.06744,4.936495 5.18325,8.1876 5.11358,8.22748 z"
     id="path8465"
     inkscape:connector-curvature="0"
     inkscape:path-effect="#path-effect8467;#path-effect8469"
     inkscape:original-d="m 210.13003,98.977094 c -9.44007,-7.4582 -18.69533,-14.91611 -28.04339,-22.37379 -9.34805,-7.45768 -25.72388,2.4056 -38.58622,3.60878 -12.86232,1.20319 -13.6946,12.02902 -20.54229,18.04391 -6.84769,6.014896 -5.55171,26.649206 -8.32796,39.974206 -2.77624,13.32499 13.325,28.12972 19.98709,42.19498 6.66211,14.06527 20.72764,13.6946 31.09106,20.5423 10.36343,6.8477 29.05559,12.5842 43.58299,18.87671 4.30014,1.86259 7.18964,3.09274 9.29484,3.97125 2.41402,1.00739 7.11253,3.59953 10.71231,5.30962 4.48349,2.1299 29.61142,8.9615 33.64208,10.36736 0.0724,0.0253 48.32565,-40.48451 36.01363,-32.51099 -0.33187,0.21493 59.05677,-19.2495 59.30467,-19.14477 6.77838,2.86371 55.14548,-4.58595 61.50414,-0.0314"
     sodipodi:nodetypes="cssssssssssssc"
     inkscape:export-filename="D:\Users\Cosmin\Desktop\vectorial\vectorial\png\grande_gris.png"
     inkscape:export-xdpi="50.0256"
     inkscape:export-ydpi="50.0256" />
  <path
     style="fill:#e72a4e;fill-opacity:1;stroke:none;stroke-width:0.25805026px;stroke-linecap:butt;stroke-linejoin:miter;stroke-opacity:1"
     d="m 184.53958,152.17823 c 0.26553,0.19642 -2.35333,3.61694 -5.0149,10.78233 -2.53546,6.8259 -5.2934,18.70562 -1.54451,31.89738 3.32073,11.74314 12.51341,25.17334 27.73868,31.72011 6.72136,2.89431 14.51471,4.4027 22.43333,3.68984 7.30666,-0.65503 14.7865,-3.22042 21.09138,-7.81138 3.92847,-2.83864 7.39175,-6.4667 10.67823,-10.50428 5.62889,-6.97121 11.32428,-16.27271 19.09127,-23.15554 5.71968,-4.97806 12.38672,-8.57334 19.29946,-11.5348 6.68842,-2.87639 13.62327,-5.25339 20.77749,-7.18163 20.59749,-5.55152 41.77563,-7.04136 61.23406,-6.85562 30.8464,0.26745 58.71177,3.89426 82.56056,5.34685 51.07627,3.10986 83.91242,-0.30283 83.9951,0.61463 0.0371,0.41163 -32.52488,6.00538 -84.22456,3.94661 -24.05621,-0.95743 -51.99044,-4.20746 -82.35866,-4.23746 -19.1326,-0.002 -39.81669,1.5048 -59.68205,6.84719 -6.90587,1.85719 -13.57544,4.13952 -19.9864,6.90023 -6.61116,2.85832 -12.77376,6.10006 -17.81759,10.5085 -6.94139,5.94425 -12.50789,15.0023 -18.57212,22.33072 -3.49814,4.25958 -7.35842,8.18527 -11.83335,11.37881 -7.23988,5.13177 -15.6447,7.896 -23.83824,8.50219 -8.86917,0.65316 -17.42581,-1.15588 -24.75235,-4.48826 -16.6304,-7.57287 -26.08441,-22.34632 -29.24084,-35.11655 -3.5258,-14.33879 0.0456,-26.66709 3.20772,-33.52354 3.3547,-7.2741 6.65671,-10.13148 6.75829,-10.05633 z m 126.90803,-16.41852 c -0.53751,-0.20198 1.26778,-5.45459 2.21673,-14.70845 0.93703,-9.13766 0.77843,-22.782092 -5.21234,-37.087083 -2.57287,-6.118702 -6.19786,-12.416938 -11.28224,-17.583885 -4.63753,-4.744703 -10.56218,-8.59247 -17.27459,-11.009816 -2.39569,-0.862761 -4.83556,-1.522339 -7.28351,-1.976941 -9.54721,-1.788533 -19.17459,-0.466797 -27.39939,2.443011 -9.89828,3.530574 -17.58307,9.21827 -22.85352,15.451802 0,2e-6 0,4e-6 0,5e-6 -11.93484,14.062564 -11.37643,27.707768 -12.22872,27.688745 0.77114,0.01721 -4.3366,-12.934438 8.85692,-30.383556 0,-10e-7 0,-2e-6 0,-4e-6 5.40236,-7.120371 13.58079,-13.7523 24.33822,-17.860076 8.93892,-3.437481 19.54514,-5.039438 30.34117,-3.108929 2.76866,0.499085 5.52259,1.23481 8.22316,2.206974 7.56961,2.724945 14.20761,7.116959 19.4073,12.566129 5.65165,5.958438 9.4883,12.930607 12.036,19.614314 5.98351,15.632843 5.30525,30.11334 3.42222,39.50958 -1.92276,9.59452 -4.94573,14.37409 -5.30741,14.23818 z"
     id="path8471"
     inkscape:connector-curvature="0"
     inkscape:path-effect="#path-effect8473;#path-effect8475"
     inkscape:original-d="m 184.53958,152.17823 c 2.32465,-1.67057 -1.37185,61.38187 20.22705,76.54812 12.61334,8.8568 44.91961,-1.80107 46.05765,-4.06774 1.03848,-2.06836 7.70611,-7.09724 11.25579,-10.94154 6.67712,-7.23131 11.35183,-16.34567 18.83169,-22.74313 5.46775,-4.67652 11.67612,-8.92437 18.55853,-11.02165 52.15007,-15.89169 154.97413,-10.31889 163.29961,-9.10018 7.58743,1.11067 74.11653,17.58059 84.10983,-1.66599 M 311.44761,135.75971 c 5.55172,-12.58421 1.75837,-37.966636 -0.55521,-52.771646 -2.31358,-14.80499 -7.7725,-12.39965 -11.65912,-18.5991 -3.88665,-6.19945 -17.39595,-9.25356 -26.09428,-13.87993 -8.69836,-4.62638 -19.24658,1.8504 -28.87028,2.77597 -9.62366,0.9256 -15.73032,11.1037 -23.59587,16.65594 -7.86555,5.55223 -7.02829,19.35717 -10.54282,29.03615"
     sodipodi:nodetypes="casaaasccscscsc"
     inkscape:export-filename="D:\Users\Cosmin\Desktop\vectorial\vectorial\png\grande_gris.png"
     inkscape:export-xdpi="50.0256"
     inkscape:export-ydpi="50.0256" />
  <path
     style="fill:none;stroke:#000000;stroke-width:3.23620892;stroke-linecap:round;stroke-linejoin:round;stroke-miterlimit:4;stroke-dasharray:none;stroke-opacity:1"
     d="m 197.10652,147.43727 h 7.51913 c 5.59763,-5.16031 4.51856,-9.61404 6.77728,-14.41663 l 3.33461,10.28062 c 1.37213,6.58388 7.30793,2.61606 9.51769,9.62074 l 7.83053,29.59328 13.03683,-113.232076 7.6117,141.826026 7.84659,-55.26816 c 0.54169,-1.88995 2.16987,-6.41819 5.41397,-7.65935 4.93354,-1.14731 7.77035,0.0784 12.81018,0.0893 6.9813,-1.21543 9.92732,-15.35074 11.30117,-17.73753"
     id="path4601-7"
     inkscape:connector-curvature="0"
     sodipodi:nodetypes="cccccccccccc"
     inkscape:export-filename="D:\Users\Cosmin\Desktop\vectorial\vectorial\png\grande_gris.png"
     inkscape:export-xdpi="50.0256"
     inkscape:export-ydpi="50.0256" />
  <path
     style="fill:#000000;fill-rule:nonzero;stroke:none;stroke-width:0.25805026px;stroke-linecap:butt;stroke-linejoin:miter;stroke-opacity:1"
     d="m 183.27841,154.1005 c 1.08003,-2.05478 3.89723,-4.90429 8.1433,-5.63969 2.46569,-0.23669 4.21223,0.33013 5.38339,0.55392 0,0 0.30142,-1.57744 0.30142,-1.57744 0,0 0.30142,-1.57744 0.30142,-1.57744 -1.46703,-0.28031 -3.94178,-0.0839 -6.42017,1.05472 -4.52251,1.71902 -6.67632,5.22055 -7.70936,7.18593 z"
     id="path8510"
     inkscape:connector-curvature="0"
     inkscape:path-effect="#path-effect8512;#path-effect8514"
     inkscape:original-d="m 183.27841,154.1005 c -0.32847,-0.60648 6.79791,-5.8242 7.92633,-6.41281 1.12842,-0.58864 3.98819,-0.2016 5.90178,-0.2504"
     sodipodi:nodetypes="ccc"
     inkscape:export-filename="D:\Users\Cosmin\Desktop\vectorial\vectorial\png\grande_gris.png"
     inkscape:export-xdpi="50.0256"
     inkscape:export-ydpi="50.0256" />
  <text
     xml:space="preserve"
     style="font-style:normal;font-variant:normal;font-weight:normal;font-stretch:normal;font-size:46.55134201px;line-height:1.25;font-family:'Segoe Script';-inkscape-font-specification:'Segoe Script, Normal';font-variant-ligatures:normal;font-variant-caps:normal;font-variant-numeric:normal;font-feature-settings:normal;text-align:start;letter-spacing:0px;word-spacing:0px;writing-mode:lr-tb;text-anchor:start;fill:#000000;fill-opacity:1;stroke:none;stroke-width:1.19236374"
     x="286.5661"
     y="161.27695"
     id="text871-7-5"
     inkscape:export-filename="D:\Users\Cosmin\Desktop\vectorial\vectorial\png\grande_gris.png"
     inkscape:export-xdpi="50.0256"
     inkscape:export-ydpi="50.0256"><tspan
       sodipodi:role="line"
       id="tspan4603-4"
       x="286.5661"
       y="161.27695"
       style="font-style:normal;font-variant:normal;font-weight:normal;font-stretch:normal;font-size:46.55134201px;font-family:'Segoe Script';-inkscape-font-specification:'Segoe Script, Normal';font-variant-ligatures:normal;font-variant-caps:normal;font-variant-numeric:normal;font-feature-settings:normal;text-align:start;writing-mode:lr-tb;text-anchor:start;stroke-width:1.19236374">WeCareLab</tspan></text>
  <text
     xml:space="preserve"
     style="font-style:normal;font-variant:normal;font-weight:normal;font-stretch:normal;font-size:9.49627495px;line-height:1.25;font-family:'Segoe Print';-inkscape-font-specification:'Segoe Print, Normal';font-variant-ligatures:normal;font-variant-caps:normal;font-variant-numeric:normal;font-feature-settings:normal;text-align:start;letter-spacing:0px;word-spacing:0px;writing-mode:lr-tb;text-anchor:start;fill:#0b0707;fill-opacity:1;stroke:none;stroke-width:0.02580503;stroke-miterlimit:4;stroke-dasharray:none"
     id="text871-7-8-6"
     inkscape:export-filename="D:\Users\Cosmin\Desktop\vectorial\vectorial\png\grande_gris.png"
     inkscape:export-xdpi="50.0256"
     inkscape:export-ydpi="50.0256"
     transform="translate(-58.854722,-191.90516)"><textPath
       xlink:href="#path8605"
       id="textPath8612"><tspan
   style="fill:#0b0707;fill-opacity:1;stroke-width:0.02580503;stroke-miterlimit:4;stroke-dasharray:none"
   id="tspan6228-5">Wellbeing and Healthcare Living Lab</tspan></textPath></text>
  <g
     inkscape:groupmode="layer"
     id="layer1"
     inkscape:label="Layer 1"
     transform="translate(-58.854722,-191.90516)"
     style="display:inline" />
  <g
     inkscape:groupmode="layer"
     id="layer2"
     inkscape:label="Layer 2"
     style="display:none"
     transform="translate(-58.854722,-191.90516)">
    <path
       style="fill:none;stroke:#000000;stroke-width:0.25805026px;stroke-linecap:butt;stroke-linejoin:miter;stroke-opacity:1"
       d="m 324.33162,423.78172 c 5.99603,-5.05749 11.63056,-10.54348 16.8464,-16.40229 6.19739,-6.96135 11.88243,-14.5225 19.33476,-20.1199 6.7897,-5.0997 14.82084,-8.37154 23.06917,-10.38948 8.24833,-2.01795 16.74334,-2.82472 25.21861,-3.35095 32.20568,-1.99967 64.65666,-0.0169 96.37932,5.88875"
       id="path8605"
       inkscape:connector-curvature="0"
       inkscape:path-effect="#path-effect8607"
       inkscape:original-d="m 324.33162,423.78172 c 6.64146,-9.7167 26.04258,-9.17481 16.8464,-16.40229 -21.09039,-16.57539 3.59896,-12.30118 19.33476,-20.1199 15.7358,-7.81869 34.41675,-11.58148 48.28778,-13.74043 13.87105,-2.15895 88.52791,5.88849 96.37932,5.88875"
       sodipodi:nodetypes="cscsc" />
  </g>
  <g
     inkscape:groupmode="layer"
     id="layer3"
     inkscape:label="Layer 3"
     style="display:none;opacity:1"
     transform="translate(-58.854722,-191.90516)">
    <text
       xml:space="preserve"
       style="font-style:normal;font-variant:normal;font-weight:normal;font-stretch:normal;font-size:9.49627495px;line-height:1.25;font-family:'Segoe Print';-inkscape-font-specification:'Segoe Print, Normal';font-variant-ligatures:normal;font-variant-caps:normal;font-variant-numeric:normal;font-feature-settings:normal;text-align:start;letter-spacing:0px;word-spacing:0px;writing-mode:lr-tb;text-anchor:start;fill:#000000;fill-opacity:1;stroke:none;stroke-width:0.05161006;stroke-miterlimit:4;stroke-dasharray:none"
       id="text871-7-8-2-2"
       inkscape:export-filename="D:\Users\Cosmin\Desktop\vectorial\vectorial\png\grande_gris.png"
       inkscape:export-xdpi="50.0256"
       inkscape:export-ydpi="50.0256"><textPath
         xlink:href="#path8605"
         id="textPath8609"
         startOffset="0%"><tspan
   style="fill:#000000;fill-opacity:1;stroke-width:0.05161006;stroke-miterlimit:4;stroke-dasharray:none"
   id="tspan6228-3-4">Wellbeing and Healthcare Living Lab</tspan></textPath></text>
  </g>
</svg>
